<svg width="24" height="24" viewBox="0 0 24 24" fill="none" xmlns="http://www.w3.org/2000/svg">
<path d="M19.6148 5.41276C18.2214 4.75418 16.7128 4.27618 15.1413 4C15.1137 4.0004 15.0873 4.01185 15.068 4.03187C14.8794 4.3824 14.6594 4.83916 14.5127 5.18969C12.8459 4.93492 11.1508 4.93492 9.48402 5.18969C9.33735 4.82854 9.11735 4.3824 8.91829 4.03187C8.90782 4.01062 8.87639 4 8.84496 4C7.27349 4.27618 5.77535 4.75418 4.3715 5.41276C4.36103 5.41276 4.35055 5.42338 4.34007 5.434C1.49047 9.75726 0.704735 13.9637 1.09236 18.1276C1.09236 18.1488 1.10284 18.1701 1.12379 18.1807C3.00956 19.5828 4.82199 20.4326 6.61347 20.9956C6.6449 21.0062 6.67633 20.9956 6.6868 20.9744C7.10586 20.3901 7.48302 19.774 7.80779 19.1261C7.82874 19.0836 7.80779 19.0411 7.76588 19.0305C7.16872 18.7968 6.60299 18.5206 6.04774 18.2019C6.00583 18.1807 6.00583 18.117 6.03726 18.0851C6.1525 18.0001 6.26775 17.9045 6.38299 17.8195C6.40394 17.7983 6.43537 17.7983 6.45632 17.8089C10.0602 19.4766 13.947 19.4766 17.509 17.8089C17.53 17.7983 17.5614 17.7983 17.5823 17.8195C17.6976 17.9151 17.8128 18.0001 17.9281 18.0957C17.97 18.1276 17.97 18.1913 17.9176 18.2126C17.3728 18.5419 16.7966 18.8074 16.1994 19.0411C16.1575 19.0517 16.1471 19.1048 16.1575 19.1367C16.4928 19.7847 16.8699 20.4008 17.2785 20.985C17.31 20.9956 17.3414 21.0062 17.3728 20.9956C19.1748 20.4326 20.9872 19.5828 22.873 18.1807C22.8939 18.1701 22.9044 18.1488 22.9044 18.1276C23.3654 13.3157 22.1396 9.14117 19.6567 5.434C19.6462 5.42338 19.6357 5.41276 19.6148 5.41276ZM8.35256 15.5889C7.27349 15.5889 6.37251 14.5798 6.37251 13.337C6.37251 12.0942 7.25253 11.085 8.35256 11.085C9.46307 11.085 10.3431 12.1048 10.3326 13.337C10.3326 14.5798 9.4526 15.5889 8.35256 15.5889ZM15.6547 15.5889C14.5756 15.5889 13.6746 14.5798 13.6746 13.337C13.6746 12.0942 14.5546 11.085 15.6547 11.085C16.7652 11.085 17.6452 12.1048 17.6347 13.337C17.6347 14.5798 16.7652 15.5889 15.6547 15.5889Z" fill="white"/>
</svg>
