<svg width="60" height="60" viewBox="0 0 60 60" fill="none" xmlns="http://www.w3.org/2000/svg">
<g clip-path="url(#clip0_1_28)">
<path d="M36.3333 41.8333C40.5347 39.7827 45.2182 37.2499 46.8333 36.0833C48.4485 34.9168 49.6568 34.0945 51.1667 32.5C52.4109 31.186 52.96 30.3635 54 28.8333C54.9666 27.4111 55.6667 26 56.3333 25C57 24 57.2628 23.6786 58.1667 23.3333C58.8383 23.0768 60 23.3333 60 23.3333C60 23.3333 59.1998 22.247 58.5 22C58.066 21.8468 57.9206 21.8536 57.5 21.6667C56.75 21.3333 56.8485 20.75 55.6667 20.5C54.892 20.3361 54.2355 20.5401 53.5 20.8333C51.9585 21.4478 50.5833 24 50.5833 24C50.5833 24 50.2126 24.3462 49.8333 24.3333C49.5424 24.3235 49.2555 24.2347 49.0833 24C47.25 21.5 46.8047 20.9565 45.1667 19C41.3849 14.4831 38.8478 12.3084 34.5 8.33333C31.0924 5.21791 25.5 0.666668 25.5 0.666668C25.5 0.666668 32.1858 8.48239 36.9167 15.9167C41.6476 23.3509 40.8333 26.25 40.5 28.1667C40.1667 30.0833 38.7698 32.769 36.9167 34.75C34.578 37.25 33.052 38.5487 30.25 40.4167C24.518 44.238 23.2147 44.8903 18.3791 47.3104L18.3333 47.3333C11.3936 50.8066 0 55 0 55C0 55 11.8731 51.3992 19.3333 48.6667C26.052 46.2058 29.9032 44.9718 36.3333 41.8333Z" fill="white"/>
<path d="M19.6806 35.0583C21.9563 33.9512 24.4932 32.5838 25.3681 31.954C26.2429 31.3242 26.8975 30.8803 27.7153 30.0194C28.3892 29.31 28.6867 28.866 29.25 28.0399C29.7736 27.2721 30.1528 26.5102 30.5139 25.9703C30.875 25.4305 31.0173 25.2569 31.5069 25.0706C31.8707 24.9321 32.5 25.0706 32.5 25.0706C32.5 25.0706 32.0666 24.4841 31.6875 24.3507C31.4524 24.268 31.3736 24.2717 31.1458 24.1708C30.7396 23.9908 30.7929 23.6759 30.1528 23.5409C29.7332 23.4524 29.3776 23.5626 28.9792 23.7209C28.1442 24.0526 27.3993 25.4305 27.3993 25.4305C27.3993 25.4305 27.1985 25.6174 26.9931 25.6104C26.8355 25.6051 26.68 25.5572 26.5868 25.4305C25.5938 24.0808 25.3526 23.7874 24.4653 22.7311C22.4168 20.2925 21.0426 19.1184 18.6875 16.9724C16.8417 15.2904 13.8125 12.8333 13.8125 12.8333C13.8125 12.8333 17.434 17.0529 19.9965 21.0665C22.5591 25.0801 22.1181 26.6452 21.9375 27.68C21.7569 28.7147 21.0003 30.1647 19.9965 31.2342C18.7297 32.5838 17.9032 33.285 16.3854 34.2935C13.2806 36.3565 12.5746 36.7087 9.95532 38.0153L9.93056 38.0276C6.17151 39.9028 3.8147e-06 42.1667 3.8147e-06 42.1667C3.8147e-06 42.1667 6.43126 40.2227 10.4722 38.7474C14.1115 37.4189 16.1976 36.7527 19.6806 35.0583Z" fill="white"/>
<path d="M49.1725 55.1733C50.503 54.5254 51.9861 53.7252 52.4975 53.3566C53.009 52.988 53.3917 52.7282 53.8698 52.2244C54.2638 51.8093 54.4377 51.5494 54.767 51.066C55.0731 50.6166 55.2948 50.1708 55.5059 49.8548C55.717 49.5389 55.8002 49.4373 56.0864 49.3282C56.2991 49.2472 56.667 49.3282 56.667 49.3282C56.667 49.3282 56.4136 48.985 56.192 48.907C56.0546 48.8586 56.0085 48.8607 55.8753 48.8016C55.6378 48.6963 55.669 48.512 55.2948 48.433C55.0495 48.3813 54.8416 48.4457 54.6087 48.5383C54.1205 48.7325 53.685 49.5389 53.685 49.5389C53.685 49.5389 53.5677 49.6482 53.4475 49.6442C53.3554 49.6411 53.2646 49.613 53.21 49.5389C52.6295 48.749 52.4885 48.5773 51.9698 47.9591C50.7722 46.532 49.9688 45.8449 48.592 44.589C47.5129 43.6046 45.742 42.1667 45.742 42.1667C45.742 42.1667 47.8591 44.6361 49.3573 46.9849C50.8554 49.3338 50.5975 50.2497 50.492 50.8553C50.3864 51.4609 49.9441 52.3094 49.3573 52.9353C48.6167 53.7252 48.1335 54.1355 47.2462 54.7257C45.431 55.9331 45.0183 56.1392 43.487 56.9038L43.4725 56.911C41.275 58.0084 37.667 59.3333 37.667 59.3333C37.667 59.3333 41.4268 58.1956 43.7892 57.3323C45.9168 56.5548 47.1363 56.1649 49.1725 55.1733Z" fill="white"/>
</g>
<defs>
<clipPath id="clip0_1_28">
<rect width="60" height="60" fill="white" transform="matrix(-1 0 0 1 60 0)"/>
</clipPath>
</defs>
</svg>
