<svg width="1920" height="1001" viewBox="0 0 1920 1001" fill="none" xmlns="http://www.w3.org/2000/svg">
<g clip-path="url(#clip0_1_9)">
<g clip-path="url(#clip1_1_9)">
<g opacity="0.4" clip-path="url(#clip2_1_9)">
<rect x="73" width="1" height="1001" fill="#C6C9DF" fill-opacity="0.12"/>
<rect x="665" width="1" height="1001" fill="#C6C9DF" fill-opacity="0.12"/>
<rect x="1257" width="1" height="1001" fill="#C6C9DF" fill-opacity="0.12"/>
<rect x="1919" width="1" height="1001" fill="#C6C9DF" fill-opacity="0.12"/>
<rect x="1849" width="1" height="1001" fill="#C6C9DF" fill-opacity="0.12"/>
<rect x="221" width="1" height="1001" fill="#C6C9DF" fill-opacity="0.12"/>
<rect x="813" width="1" height="1001" fill="#C6C9DF" fill-opacity="0.12"/>
<rect x="1405" width="1" height="1001" fill="#C6C9DF" fill-opacity="0.12"/>
<rect x="369" width="1" height="1001" fill="#C6C9DF" fill-opacity="0.12"/>
<rect x="961" width="1" height="1001" fill="#C6C9DF" fill-opacity="0.12"/>
<rect x="1553" width="1" height="1001" fill="#C6C9DF" fill-opacity="0.12"/>
<rect x="517" width="1" height="1001" fill="#C6C9DF" fill-opacity="0.12"/>
<rect x="1109" width="1" height="1001" fill="#C6C9DF" fill-opacity="0.12"/>
<rect x="1701" width="1" height="1001" fill="#C6C9DF" fill-opacity="0.12"/>
<rect x="147" width="1" height="1001" fill="#C6C9DF" fill-opacity="0.12"/>
<rect x="739" width="1" height="1001" fill="#C6C9DF" fill-opacity="0.12"/>
<rect x="1331" width="1" height="1001" fill="#C6C9DF" fill-opacity="0.12"/>
<rect x="295" width="1" height="1001" fill="#C6C9DF" fill-opacity="0.12"/>
<rect x="887" width="1" height="1001" fill="#C6C9DF" fill-opacity="0.12"/>
<rect x="1479" width="1" height="1001" fill="#C6C9DF" fill-opacity="0.12"/>
<rect x="443" width="1" height="1001" fill="#C6C9DF" fill-opacity="0.12"/>
<rect x="1035" width="1" height="1001" fill="#C6C9DF" fill-opacity="0.12"/>
<rect x="1627" width="1" height="1001" fill="#C6C9DF" fill-opacity="0.12"/>
<rect x="591" width="1" height="1001" fill="#C6C9DF" fill-opacity="0.12"/>
<rect x="1183" width="1" height="1001" fill="#C6C9DF" fill-opacity="0.12"/>
<rect x="1775" width="1" height="1001" fill="#C6C9DF" fill-opacity="0.12"/>
</g>
<g opacity="0.4" clip-path="url(#clip3_1_9)">
<rect y="796" width="1" height="1920" transform="rotate(-90 0 796)" fill="#C6C9DF" fill-opacity="0.12"/>
<rect y="204" width="1" height="1920" transform="rotate(-90 0 204)" fill="#C6C9DF" fill-opacity="0.12"/>
<rect y="648" width="1" height="1920" transform="rotate(-90 0 648)" fill="#C6C9DF" fill-opacity="0.12"/>
<rect y="56" width="1" height="1920" transform="rotate(-90 0 56)" fill="#C6C9DF" fill-opacity="0.12"/>
<rect y="500" width="1" height="1920" transform="rotate(-90 0 500)" fill="#C6C9DF" fill-opacity="0.12"/>
<rect y="944" width="1" height="1920" transform="rotate(-90 0 944)" fill="#C6C9DF" fill-opacity="0.12"/>
<rect y="352" width="1" height="1920" transform="rotate(-90 0 352)" fill="#C6C9DF" fill-opacity="0.12"/>
<rect y="722" width="1" height="1920" transform="rotate(-90 0 722)" fill="#C6C9DF" fill-opacity="0.12"/>
<rect y="130" width="1" height="1920" transform="rotate(-90 0 130)" fill="#C6C9DF" fill-opacity="0.12"/>
<rect y="574" width="1" height="1920" transform="rotate(-90 0 574)" fill="#C6C9DF" fill-opacity="0.12"/>
<rect y="426" width="1" height="1920" transform="rotate(-90 0 426)" fill="#C6C9DF" fill-opacity="0.12"/>
<rect y="870" width="1" height="1920" transform="rotate(-90 0 870)" fill="#C6C9DF" fill-opacity="0.12"/>
<rect y="278" width="1" height="1920" transform="rotate(-90 0 278)" fill="#C6C9DF" fill-opacity="0.12"/>
</g>
<rect x="58" y="40" width="31" height="31" fill="#0B0B0C"/>
<rect x="132" y="40" width="31" height="31" fill="#0B0B0C"/>
<rect x="206" y="40" width="31" height="31" fill="#0B0B0C"/>
<rect x="280" y="40" width="31" height="31" fill="#0B0B0C"/>
<rect x="354" y="40" width="31" height="31" fill="#0B0B0C"/>
<rect x="428" y="40" width="31" height="31" fill="#0B0B0C"/>
<rect x="502" y="40" width="31" height="31" fill="#0B0B0C"/>
<rect x="576" y="40" width="31" height="31" fill="#0B0B0C"/>
<rect x="650" y="40" width="31" height="31" fill="#0B0B0C"/>
<rect x="724" y="40" width="31" height="31" fill="#0B0B0C"/>
<rect x="798" y="40" width="31" height="31" fill="#0B0B0C"/>
<rect x="872" y="40" width="31" height="31" fill="#0B0B0C"/>
<rect x="946" y="40" width="31" height="31" fill="#0B0B0C"/>
<rect x="1020" y="40" width="31" height="31" fill="#0B0B0C"/>
<rect x="1094" y="40" width="31" height="31" fill="#0B0B0C"/>
<rect x="1168" y="40" width="31" height="31" fill="#0B0B0C"/>
<rect x="1242" y="40" width="31" height="31" fill="#0B0B0C"/>
<rect x="1316" y="40" width="31" height="31" fill="#0B0B0C"/>
<rect x="1390" y="40" width="31" height="31" fill="#0B0B0C"/>
<rect x="1464" y="40" width="31" height="31" fill="#0B0B0C"/>
<rect x="1538" y="40" width="31" height="31" fill="#0B0B0C"/>
<rect x="1612" y="40" width="31" height="31" fill="#0B0B0C"/>
<rect x="1686" y="40" width="31" height="31" fill="#0B0B0C"/>
<rect x="1760" y="40" width="31" height="31" fill="#0B0B0C"/>
<rect x="1834" y="40" width="31" height="31" fill="#0B0B0C"/>
<rect x="1905" y="40" width="31" height="31" fill="#0B0B0C"/>
<rect x="58" y="114" width="31" height="31" fill="#0B0B0C"/>
<rect x="132" y="114" width="31" height="31" fill="#0B0B0C"/>
<rect x="206" y="114" width="31" height="31" fill="#0B0B0C"/>
<rect x="280" y="114" width="31" height="31" fill="#0B0B0C"/>
<rect x="354" y="114" width="31" height="31" fill="#0B0B0C"/>
<rect x="428" y="114" width="31" height="31" fill="#0B0B0C"/>
<rect x="502" y="114" width="31" height="31" fill="#0B0B0C"/>
<rect x="576" y="114" width="31" height="31" fill="#0B0B0C"/>
<rect x="650" y="114" width="31" height="31" fill="#0B0B0C"/>
<rect x="724" y="114" width="31" height="31" fill="#0B0B0C"/>
<rect x="798" y="114" width="31" height="31" fill="#0B0B0C"/>
<rect x="872" y="114" width="31" height="31" fill="#0B0B0C"/>
<rect x="946" y="114" width="31" height="31" fill="#0B0B0C"/>
<rect x="1020" y="114" width="31" height="31" fill="#0B0B0C"/>
<rect x="1094" y="114" width="31" height="31" fill="#0B0B0C"/>
<rect x="1168" y="114" width="31" height="31" fill="#0B0B0C"/>
<rect x="1242" y="114" width="31" height="31" fill="#0B0B0C"/>
<rect x="1316" y="114" width="31" height="31" fill="#0B0B0C"/>
<rect x="1390" y="114" width="31" height="31" fill="#0B0B0C"/>
<rect x="1464" y="114" width="31" height="31" fill="#0B0B0C"/>
<rect x="1538" y="114" width="31" height="31" fill="#0B0B0C"/>
<rect x="1612" y="114" width="31" height="31" fill="#0B0B0C"/>
<rect x="1686" y="114" width="31" height="31" fill="#0B0B0C"/>
<rect x="1760" y="114" width="31" height="31" fill="#0B0B0C"/>
<rect x="1834" y="114" width="31" height="31" fill="#0B0B0C"/>
<rect x="1905" y="114" width="31" height="31" fill="#0B0B0C"/>
<rect x="58" y="188" width="31" height="31" fill="#0B0B0C"/>
<rect x="132" y="188" width="31" height="31" fill="#0B0B0C"/>
<rect x="206" y="188" width="31" height="31" fill="#0B0B0C"/>
<rect x="280" y="188" width="31" height="31" fill="#0B0B0C"/>
<rect x="354" y="188" width="31" height="31" fill="#0B0B0C"/>
<rect x="428" y="188" width="31" height="31" fill="#0B0B0C"/>
<rect x="502" y="188" width="31" height="31" fill="#0B0B0C"/>
<rect x="576" y="188" width="31" height="31" fill="#0B0B0C"/>
<rect x="650" y="188" width="31" height="31" fill="#0B0B0C"/>
<rect x="724" y="188" width="31" height="31" fill="#0B0B0C"/>
<rect x="798" y="188" width="31" height="31" fill="#0B0B0C"/>
<rect x="872" y="188" width="31" height="31" fill="#0B0B0C"/>
<rect x="946" y="188" width="31" height="31" fill="#0B0B0C"/>
<rect x="1020" y="188" width="31" height="31" fill="#0B0B0C"/>
<rect x="1094" y="188" width="31" height="31" fill="#0B0B0C"/>
<rect x="1168" y="188" width="31" height="31" fill="#0B0B0C"/>
<rect x="1242" y="188" width="31" height="31" fill="#0B0B0C"/>
<rect x="1316" y="188" width="31" height="31" fill="#0B0B0C"/>
<rect x="1390" y="188" width="31" height="31" fill="#0B0B0C"/>
<rect x="1464" y="188" width="31" height="31" fill="#0B0B0C"/>
<rect x="1538" y="188" width="31" height="31" fill="#0B0B0C"/>
<rect x="1612" y="188" width="31" height="31" fill="#0B0B0C"/>
<rect x="1686" y="188" width="31" height="31" fill="#0B0B0C"/>
<rect x="1760" y="188" width="31" height="31" fill="#0B0B0C"/>
<rect x="1834" y="188" width="31" height="31" fill="#0B0B0C"/>
<rect x="1905" y="188" width="31" height="31" fill="#0B0B0C"/>
<rect x="58" y="262" width="31" height="31" fill="#0B0B0C"/>
<rect x="132" y="262" width="31" height="31" fill="#0B0B0C"/>
<rect x="206" y="262" width="31" height="31" fill="#0B0B0C"/>
<rect x="280" y="262" width="31" height="31" fill="#0B0B0C"/>
<rect x="354" y="262" width="31" height="31" fill="#0B0B0C"/>
<rect x="428" y="262" width="31" height="31" fill="#0B0B0C"/>
<rect x="502" y="262" width="31" height="31" fill="#0B0B0C"/>
<rect x="576" y="262" width="31" height="31" fill="#0B0B0C"/>
<rect x="650" y="262" width="31" height="31" fill="#0B0B0C"/>
<rect x="724" y="262" width="31" height="31" fill="#0B0B0C"/>
<rect x="798" y="262" width="31" height="31" fill="#0B0B0C"/>
<rect x="872" y="262" width="31" height="31" fill="#0B0B0C"/>
<rect x="946" y="262" width="31" height="31" fill="#0B0B0C"/>
<rect x="1020" y="262" width="31" height="31" fill="#0B0B0C"/>
<rect x="1094" y="262" width="31" height="31" fill="#0B0B0C"/>
<rect x="1168" y="262" width="31" height="31" fill="#0B0B0C"/>
<rect x="1242" y="262" width="31" height="31" fill="#0B0B0C"/>
<rect x="1316" y="262" width="31" height="31" fill="#0B0B0C"/>
<rect x="1390" y="262" width="31" height="31" fill="#0B0B0C"/>
<rect x="1464" y="262" width="31" height="31" fill="#0B0B0C"/>
<rect x="1538" y="262" width="31" height="31" fill="#0B0B0C"/>
<rect x="1612" y="262" width="31" height="31" fill="#0B0B0C"/>
<rect x="1686" y="262" width="31" height="31" fill="#0B0B0C"/>
<rect x="1760" y="262" width="31" height="31" fill="#0B0B0C"/>
<rect x="1834" y="262" width="31" height="31" fill="#0B0B0C"/>
<rect x="1905" y="262" width="31" height="31" fill="#0B0B0C"/>
<rect x="58" y="336" width="31" height="31" fill="#0B0B0C"/>
<rect x="132" y="336" width="31" height="31" fill="#0B0B0C"/>
<rect x="206" y="336" width="31" height="31" fill="#0B0B0C"/>
<rect x="280" y="336" width="31" height="31" fill="#0B0B0C"/>
<rect x="354" y="336" width="31" height="31" fill="#0B0B0C"/>
<rect x="428" y="336" width="31" height="31" fill="#0B0B0C"/>
<rect x="502" y="336" width="31" height="31" fill="#0B0B0C"/>
<rect x="576" y="336" width="31" height="31" fill="#0B0B0C"/>
<rect x="650" y="336" width="31" height="31" fill="#0B0B0C"/>
<rect x="724" y="336" width="31" height="31" fill="#0B0B0C"/>
<rect x="798" y="336" width="31" height="31" fill="#0B0B0C"/>
<rect x="872" y="336" width="31" height="31" fill="#0B0B0C"/>
<rect x="946" y="336" width="31" height="31" fill="#0B0B0C"/>
<rect x="1020" y="336" width="31" height="31" fill="#0B0B0C"/>
<rect x="1094" y="336" width="31" height="31" fill="#0B0B0C"/>
<rect x="1168" y="336" width="31" height="31" fill="#0B0B0C"/>
<rect x="1242" y="336" width="31" height="31" fill="#0B0B0C"/>
<rect x="1316" y="336" width="31" height="31" fill="#0B0B0C"/>
<rect x="1390" y="336" width="31" height="31" fill="#0B0B0C"/>
<rect x="1464" y="336" width="31" height="31" fill="#0B0B0C"/>
<rect x="1538" y="336" width="31" height="31" fill="#0B0B0C"/>
<rect x="1612" y="336" width="31" height="31" fill="#0B0B0C"/>
<rect x="1686" y="336" width="31" height="31" fill="#0B0B0C"/>
<rect x="1760" y="336" width="31" height="31" fill="#0B0B0C"/>
<rect x="1834" y="336" width="31" height="31" fill="#0B0B0C"/>
<rect x="1905" y="336" width="31" height="31" fill="#0B0B0C"/>
<rect x="58" y="410" width="31" height="31" fill="#0B0B0C"/>
<rect x="132" y="410" width="31" height="31" fill="#0B0B0C"/>
<rect x="206" y="410" width="31" height="31" fill="#0B0B0C"/>
<rect x="280" y="410" width="31" height="31" fill="#0B0B0C"/>
<rect x="354" y="410" width="31" height="31" fill="#0B0B0C"/>
<rect x="428" y="410" width="31" height="31" fill="#0B0B0C"/>
<rect x="502" y="410" width="31" height="31" fill="#0B0B0C"/>
<rect x="576" y="410" width="31" height="31" fill="#0B0B0C"/>
<rect x="650" y="410" width="31" height="31" fill="#0B0B0C"/>
<rect x="724" y="410" width="31" height="31" fill="#0B0B0C"/>
<rect x="798" y="410" width="31" height="31" fill="#0B0B0C"/>
<rect x="872" y="410" width="31" height="31" fill="#0B0B0C"/>
<rect x="946" y="410" width="31" height="31" fill="#0B0B0C"/>
<rect x="1020" y="410" width="31" height="31" fill="#0B0B0C"/>
<rect x="1094" y="410" width="31" height="31" fill="#0B0B0C"/>
<rect x="1168" y="410" width="31" height="31" fill="#0B0B0C"/>
<rect x="1242" y="410" width="31" height="31" fill="#0B0B0C"/>
<rect x="1316" y="410" width="31" height="31" fill="#0B0B0C"/>
<rect x="1390" y="410" width="31" height="31" fill="#0B0B0C"/>
<rect x="1464" y="410" width="31" height="31" fill="#0B0B0C"/>
<rect x="1538" y="410" width="31" height="31" fill="#0B0B0C"/>
<rect x="1612" y="410" width="31" height="31" fill="#0B0B0C"/>
<rect x="1686" y="410" width="31" height="31" fill="#0B0B0C"/>
<rect x="1760" y="410" width="31" height="31" fill="#0B0B0C"/>
<rect x="1834" y="410" width="31" height="31" fill="#0B0B0C"/>
<rect x="1905" y="410" width="31" height="31" fill="#0B0B0C"/>
<rect x="58" y="484" width="31" height="31" fill="#0B0B0C"/>
<rect x="132" y="484" width="31" height="31" fill="#0B0B0C"/>
<rect x="206" y="484" width="31" height="31" fill="#0B0B0C"/>
<rect x="280" y="484" width="31" height="31" fill="#0B0B0C"/>
<rect x="354" y="484" width="31" height="31" fill="#0B0B0C"/>
<rect x="428" y="484" width="31" height="31" fill="#0B0B0C"/>
<rect x="502" y="484" width="31" height="31" fill="#0B0B0C"/>
<rect x="576" y="484" width="31" height="31" fill="#0B0B0C"/>
<rect x="650" y="484" width="31" height="31" fill="#0B0B0C"/>
<rect x="724" y="484" width="31" height="31" fill="#0B0B0C"/>
<rect x="798" y="484" width="31" height="31" fill="#0B0B0C"/>
<rect x="872" y="484" width="31" height="31" fill="#0B0B0C"/>
<rect x="946" y="484" width="31" height="31" fill="#0B0B0C"/>
<rect x="1020" y="484" width="31" height="31" fill="#0B0B0C"/>
<rect x="1094" y="484" width="31" height="31" fill="#0B0B0C"/>
<rect x="1168" y="484" width="31" height="31" fill="#0B0B0C"/>
<rect x="1242" y="484" width="31" height="31" fill="#0B0B0C"/>
<rect x="1316" y="484" width="31" height="31" fill="#0B0B0C"/>
<rect x="1390" y="484" width="31" height="31" fill="#0B0B0C"/>
<rect x="1464" y="484" width="31" height="31" fill="#0B0B0C"/>
<rect x="1538" y="484" width="31" height="31" fill="#0B0B0C"/>
<rect x="1612" y="484" width="31" height="31" fill="#0B0B0C"/>
<rect x="1686" y="484" width="31" height="31" fill="#0B0B0C"/>
<rect x="1760" y="484" width="31" height="31" fill="#0B0B0C"/>
<rect x="1834" y="484" width="31" height="31" fill="#0B0B0C"/>
<rect x="1905" y="484" width="31" height="31" fill="#0B0B0C"/>
<rect x="58" y="558" width="31" height="31" fill="#0B0B0C"/>
<rect x="132" y="558" width="31" height="31" fill="#0B0B0C"/>
<rect x="206" y="558" width="31" height="31" fill="#0B0B0C"/>
<rect x="280" y="558" width="31" height="31" fill="#0B0B0C"/>
<rect x="354" y="558" width="31" height="31" fill="#0B0B0C"/>
<rect x="428" y="558" width="31" height="31" fill="#0B0B0C"/>
<rect x="502" y="558" width="31" height="31" fill="#0B0B0C"/>
<rect x="576" y="558" width="31" height="31" fill="#0B0B0C"/>
<rect x="650" y="558" width="31" height="31" fill="#0B0B0C"/>
<rect x="724" y="558" width="31" height="31" fill="#0B0B0C"/>
<rect x="798" y="558" width="31" height="31" fill="#0B0B0C"/>
<rect x="872" y="558" width="31" height="31" fill="#0B0B0C"/>
<rect x="946" y="558" width="31" height="31" fill="#0B0B0C"/>
<rect x="1020" y="558" width="31" height="31" fill="#0B0B0C"/>
<rect x="1094" y="558" width="31" height="31" fill="#0B0B0C"/>
<rect x="1168" y="558" width="31" height="31" fill="#0B0B0C"/>
<rect x="1242" y="558" width="31" height="31" fill="#0B0B0C"/>
<rect x="1316" y="558" width="31" height="31" fill="#0B0B0C"/>
<rect x="1390" y="558" width="31" height="31" fill="#0B0B0C"/>
<rect x="1464" y="558" width="31" height="31" fill="#0B0B0C"/>
<rect x="1538" y="558" width="31" height="31" fill="#0B0B0C"/>
<rect x="1612" y="558" width="31" height="31" fill="#0B0B0C"/>
<rect x="1686" y="558" width="31" height="31" fill="#0B0B0C"/>
<rect x="1760" y="558" width="31" height="31" fill="#0B0B0C"/>
<rect x="1834" y="558" width="31" height="31" fill="#0B0B0C"/>
<rect x="1905" y="558" width="31" height="31" fill="#0B0B0C"/>
<rect x="58" y="632" width="31" height="31" fill="#0B0B0C"/>
<rect x="132" y="632" width="31" height="31" fill="#0B0B0C"/>
<rect x="206" y="632" width="31" height="31" fill="#0B0B0C"/>
<rect x="280" y="632" width="31" height="31" fill="#0B0B0C"/>
<rect x="354" y="632" width="31" height="31" fill="#0B0B0C"/>
<rect x="428" y="632" width="31" height="31" fill="#0B0B0C"/>
<rect x="502" y="632" width="31" height="31" fill="#0B0B0C"/>
<rect x="576" y="632" width="31" height="31" fill="#0B0B0C"/>
<rect x="650" y="632" width="31" height="31" fill="#0B0B0C"/>
<rect x="724" y="632" width="31" height="31" fill="#0B0B0C"/>
<rect x="798" y="632" width="31" height="31" fill="#0B0B0C"/>
<rect x="872" y="632" width="31" height="31" fill="#0B0B0C"/>
<rect x="946" y="632" width="31" height="31" fill="#0B0B0C"/>
<rect x="1020" y="632" width="31" height="31" fill="#0B0B0C"/>
<rect x="1094" y="632" width="31" height="31" fill="#0B0B0C"/>
<rect x="1168" y="632" width="31" height="31" fill="#0B0B0C"/>
<rect x="1242" y="632" width="31" height="31" fill="#0B0B0C"/>
<rect x="1316" y="632" width="31" height="31" fill="#0B0B0C"/>
<rect x="1390" y="632" width="31" height="31" fill="#0B0B0C"/>
<rect x="1464" y="632" width="31" height="31" fill="#0B0B0C"/>
<rect x="1538" y="632" width="31" height="31" fill="#0B0B0C"/>
<rect x="1612" y="632" width="31" height="31" fill="#0B0B0C"/>
<rect x="1686" y="632" width="31" height="31" fill="#0B0B0C"/>
<rect x="1760" y="632" width="31" height="31" fill="#0B0B0C"/>
<rect x="1834" y="632" width="31" height="31" fill="#0B0B0C"/>
<rect x="1905" y="632" width="31" height="31" fill="#0B0B0C"/>
<rect x="58" y="706" width="31" height="31" fill="#0B0B0C"/>
<rect x="132" y="706" width="31" height="31" fill="#0B0B0C"/>
<rect x="206" y="706" width="31" height="31" fill="#0B0B0C"/>
<rect x="280" y="706" width="31" height="31" fill="#0B0B0C"/>
<rect x="354" y="706" width="31" height="31" fill="#0B0B0C"/>
<rect x="428" y="706" width="31" height="31" fill="#0B0B0C"/>
<rect x="502" y="706" width="31" height="31" fill="#0B0B0C"/>
<rect x="576" y="706" width="31" height="31" fill="#0B0B0C"/>
<rect x="650" y="706" width="31" height="31" fill="#0B0B0C"/>
<rect x="724" y="706" width="31" height="31" fill="#0B0B0C"/>
<rect x="798" y="706" width="31" height="31" fill="#0B0B0C"/>
<rect x="872" y="706" width="31" height="31" fill="#0B0B0C"/>
<rect x="946" y="706" width="31" height="31" fill="#0B0B0C"/>
<rect x="1020" y="706" width="31" height="31" fill="#0B0B0C"/>
<rect x="1094" y="706" width="31" height="31" fill="#0B0B0C"/>
<rect x="1168" y="706" width="31" height="31" fill="#0B0B0C"/>
<rect x="1242" y="706" width="31" height="31" fill="#0B0B0C"/>
<rect x="1316" y="706" width="31" height="31" fill="#0B0B0C"/>
<rect x="1390" y="706" width="31" height="31" fill="#0B0B0C"/>
<rect x="1464" y="706" width="31" height="31" fill="#0B0B0C"/>
<rect x="1538" y="706" width="31" height="31" fill="#0B0B0C"/>
<rect x="1612" y="706" width="31" height="31" fill="#0B0B0C"/>
<rect x="1686" y="706" width="31" height="31" fill="#0B0B0C"/>
<rect x="1760" y="706" width="31" height="31" fill="#0B0B0C"/>
<rect x="1834" y="706" width="31" height="31" fill="#0B0B0C"/>
<rect x="1905" y="706" width="31" height="31" fill="#0B0B0C"/>
<rect x="58" y="780" width="31" height="31" fill="#0B0B0C"/>
<rect x="132" y="780" width="31" height="31" fill="#0B0B0C"/>
<rect x="206" y="780" width="31" height="31" fill="#0B0B0C"/>
<rect x="280" y="780" width="31" height="31" fill="#0B0B0C"/>
<rect x="354" y="780" width="31" height="31" fill="#0B0B0C"/>
<rect x="428" y="780" width="31" height="31" fill="#0B0B0C"/>
<rect x="502" y="780" width="31" height="31" fill="#0B0B0C"/>
<rect x="576" y="780" width="31" height="31" fill="#0B0B0C"/>
<rect x="650" y="780" width="31" height="31" fill="#0B0B0C"/>
<rect x="724" y="780" width="31" height="31" fill="#0B0B0C"/>
<rect x="798" y="780" width="31" height="31" fill="#0B0B0C"/>
<rect x="872" y="780" width="31" height="31" fill="#0B0B0C"/>
<rect x="946" y="780" width="31" height="31" fill="#0B0B0C"/>
<rect x="1020" y="780" width="31" height="31" fill="#0B0B0C"/>
<rect x="1094" y="780" width="31" height="31" fill="#0B0B0C"/>
<rect x="1168" y="780" width="31" height="31" fill="#0B0B0C"/>
<rect x="1242" y="780" width="31" height="31" fill="#0B0B0C"/>
<rect x="1316" y="780" width="31" height="31" fill="#0B0B0C"/>
<rect x="1390" y="780" width="31" height="31" fill="#0B0B0C"/>
<rect x="1464" y="780" width="31" height="31" fill="#0B0B0C"/>
<rect x="1538" y="780" width="31" height="31" fill="#0B0B0C"/>
<rect x="1612" y="780" width="31" height="31" fill="#0B0B0C"/>
<rect x="1686" y="780" width="31" height="31" fill="#0B0B0C"/>
<rect x="1760" y="780" width="31" height="31" fill="#0B0B0C"/>
<rect x="1834" y="780" width="31" height="31" fill="#0B0B0C"/>
<rect x="1905" y="780" width="31" height="31" fill="#0B0B0C"/>
<rect x="58" y="854" width="31" height="31" fill="#0B0B0C"/>
<rect x="132" y="854" width="31" height="31" fill="#0B0B0C"/>
<rect x="206" y="854" width="31" height="31" fill="#0B0B0C"/>
<rect x="280" y="854" width="31" height="31" fill="#0B0B0C"/>
<rect x="354" y="854" width="31" height="31" fill="#0B0B0C"/>
<rect x="428" y="854" width="31" height="31" fill="#0B0B0C"/>
<rect x="502" y="854" width="31" height="31" fill="#0B0B0C"/>
<rect x="576" y="854" width="31" height="31" fill="#0B0B0C"/>
<rect x="650" y="854" width="31" height="31" fill="#0B0B0C"/>
<rect x="724" y="854" width="31" height="31" fill="#0B0B0C"/>
<rect x="798" y="854" width="31" height="31" fill="#0B0B0C"/>
<rect x="872" y="854" width="31" height="31" fill="#0B0B0C"/>
<rect x="946" y="854" width="31" height="31" fill="#0B0B0C"/>
<rect x="1020" y="854" width="31" height="31" fill="#0B0B0C"/>
<rect x="1094" y="854" width="31" height="31" fill="#0B0B0C"/>
<rect x="1168" y="854" width="31" height="31" fill="#0B0B0C"/>
<rect x="1242" y="854" width="31" height="31" fill="#0B0B0C"/>
<rect x="1316" y="854" width="31" height="31" fill="#0B0B0C"/>
<rect x="1390" y="854" width="31" height="31" fill="#0B0B0C"/>
<rect x="1464" y="854" width="31" height="31" fill="#0B0B0C"/>
<rect x="1538" y="854" width="31" height="31" fill="#0B0B0C"/>
<rect x="1612" y="854" width="31" height="31" fill="#0B0B0C"/>
<rect x="1686" y="854" width="31" height="31" fill="#0B0B0C"/>
<rect x="1760" y="854" width="31" height="31" fill="#0B0B0C"/>
<rect x="1834" y="854" width="31" height="31" fill="#0B0B0C"/>
<rect x="1905" y="854" width="31" height="31" fill="#0B0B0C"/>
<rect x="58" y="928" width="31" height="31" fill="#0B0B0C"/>
<rect x="132" y="928" width="31" height="31" fill="#0B0B0C"/>
<rect x="206" y="928" width="31" height="31" fill="#0B0B0C"/>
<rect x="280" y="928" width="31" height="31" fill="#0B0B0C"/>
<rect x="354" y="928" width="31" height="31" fill="#0B0B0C"/>
<rect x="428" y="928" width="31" height="31" fill="#0B0B0C"/>
<rect x="502" y="928" width="31" height="31" fill="#0B0B0C"/>
<rect x="576" y="928" width="31" height="31" fill="#0B0B0C"/>
<rect x="650" y="928" width="31" height="31" fill="#0B0B0C"/>
<rect x="724" y="928" width="31" height="31" fill="#0B0B0C"/>
<rect x="798" y="928" width="31" height="31" fill="#0B0B0C"/>
<rect x="872" y="928" width="31" height="31" fill="#0B0B0C"/>
<rect x="946" y="928" width="31" height="31" fill="#0B0B0C"/>
<rect x="1020" y="928" width="31" height="31" fill="#0B0B0C"/>
<rect x="1094" y="928" width="31" height="31" fill="#0B0B0C"/>
<rect x="1168" y="928" width="31" height="31" fill="#0B0B0C"/>
<rect x="1242" y="928" width="31" height="31" fill="#0B0B0C"/>
<rect x="1316" y="928" width="31" height="31" fill="#0B0B0C"/>
<rect x="1390" y="928" width="31" height="31" fill="#0B0B0C"/>
<rect x="1464" y="928" width="31" height="31" fill="#0B0B0C"/>
<rect x="1538" y="928" width="31" height="31" fill="#0B0B0C"/>
<rect x="1612" y="928" width="31" height="31" fill="#0B0B0C"/>
<rect x="1686" y="928" width="31" height="31" fill="#0B0B0C"/>
<rect x="1760" y="928" width="31" height="31" fill="#0B0B0C"/>
<rect x="1834" y="928" width="31" height="31" fill="#0B0B0C"/>
<rect x="1905" y="928" width="31" height="31" fill="#0B0B0C"/>
</g>
</g>
<defs>
<clipPath id="clip0_1_9">
<rect width="3840" height="1001" fill="white"/>
</clipPath>
<clipPath id="clip1_1_9">
<rect width="3840" height="1001" fill="white"/>
</clipPath>
<clipPath id="clip2_1_9">
<rect width="1920" height="1001" fill="white"/>
</clipPath>
<clipPath id="clip3_1_9">
<rect width="1001" height="1920" fill="white" transform="translate(0 1001) rotate(-90)"/>
</clipPath>
</defs>
</svg>
